<svg width="49" height="49" fill="none" xmlns="http://www.w3.org/2000/svg"><path d="M3.592 20.253h1.103a1.351 1.351 0 00-.013.175v21.467h-.75a1.366 1.366 0 000 2.733h40.529a1.366 1.366 0 000-2.733h-.749V20.428c0-.06-.005-.118-.013-.175h1.103c1.03 0 1.938-.657 2.26-1.635a2.376 2.376 0 00-.844-2.659L25.01.268a1.366 1.366 0 00-1.625 0L2.176 15.959a2.376 2.376 0 00-.844 2.659 2.376 2.376 0 002.26 1.635zm21.832 21.642H22.97V20.428c0-.06-.005-.118-.013-.175h2.479a1.355 1.355 0 00-.013.175v21.467zm-10.371 0h-2.454V20.428c0-.06-.005-.118-.012-.175h2.478a1.355 1.355 0 00-.012.175v21.467zm-7.639 0v-20.1h2.453v20.1H7.414zm10.371 0v-20.1h2.453v20.1h-2.453zm10.37 0v-20.1h2.454v20.1h-2.453zm10.372 0v-20.1h2.453v20.1h-2.453zm-2.732-21.467v21.467h-2.453V20.428c0-.06-.005-.118-.013-.175h2.478a1.355 1.355 0 00-.012.175zM24.197 3.066L43.734 17.52H4.66L24.197 3.066zm22.832 43.202H1.366a1.366 1.366 0 000 2.732H47.03a1.366 1.366 0 000-2.732z" fill="#675A54"/></svg>