<svg width="41" height="41" fill="none" xmlns="http://www.w3.org/2000/svg"><g clip-path="url(#clip0)"><path fill-rule="evenodd" clip-rule="evenodd" d="M34.783 6.188c3.27 3.27 5.4 7.38 6.17 11.898A1.146 1.146 0 0140 19.419l-.02.002a1.161 1.161 0 01-1.33-.954c-.683-4.033-2.587-7.71-5.512-10.635-2.924-2.916-6.602-4.829-10.634-5.512a1.174 1.174 0 01-.961-1.35 1.164 1.164 0 011.341-.952c4.517.77 8.628 2.899 11.899 6.17zM19.095 37.553l.035.02.124.07.105.057a35.32 35.32 0 00.43.235l.02.01.002.002c.507.272 1.021.534 1.542.786l.006.003.01.004c.749.355 1.592.734 2.51 1.079a20.48 20.48 0 002.756.828l.01.002.07.015.037.008a15.24 15.24 0 002.216.31l.007.001c.161.008.33.015.486.017h.059c1.885-.002 3.486-.643 4.764-1.917.064-.064.128-.13.19-.196l.023-.024.008-.009a.072.072 0 01.017-.022.087.087 0 00.017-.021l.008-.01c.292-.353.614-.684.953-1.018.141-.14.286-.28.433-.422l.116-.112.005-.005.015-.014c.358-.341.722-.698 1.08-1.07l.03-.032v-.001l.021-.021.009-.01.003-.003.005-.005c.073-.077.143-.156.21-.235.695-.827 1.058-1.762 1.058-2.719 0-1.073-.458-2.103-1.332-2.968l-.013-.013-.008-.008-1.632-1.638-3.06-3.071-.038-.038-.02-.021h-.001l-.017-.018c-.59-.602-1.264-1.005-1.983-1.189a3.65 3.65 0 00-.288-.061l-.04-.007h-.004a3.622 3.622 0 00-.529-.045h-.059a3.677 3.677 0 00-1.077.165l-.02.007-.031.01-.034.01a3.743 3.743 0 00-.1.035l-.023.009c-.579.215-1.13.575-1.632 1.072l-.025.024-.005.005-.004.004-.06.06-.175.174-.008.008-.03.031-.123.122-.196.195-.067.067-.073.073-.166.165-.006.006-.059.059-.017.017-.031.031-.406.405-.576.573-.267.267-.37.37-.096.094c-.148-.08-.297-.156-.443-.231a49.42 49.42 0 01-.223-.115l-.01-.005-.106-.053-.058-.029a22.832 22.832 0 00-.122-.062 7.8 7.8 0 01-.56-.31l-.013-.008-.003-.001a25.361 25.361 0 01-2.03-1.433 26.593 26.593 0 01-.542-.434l-.005-.004c-.427-.352-.85-.72-1.266-1.106l-.076-.07a30.828 30.828 0 01-1.726-1.742 35.978 35.978 0 01-.86-.97l-.019-.022-.006-.007-.016-.02a38.6 38.6 0 01-.556-.667l-.005-.006-.009-.012a27.935 27.935 0 01-.099-.125l-.051-.066-.008-.01a20.104 20.104 0 01-1.522-2.22 14.386 14.386 0 01-.31-.56l-.009-.019-.028-.054a13.856 13.856 0 01-.3-.62l.018-.017.292-.27.059-.056.005-.005.077-.073.238-.23c.389-.378.764-.76 1.133-1.133l.148-.15.038-.039.01-.01c.118-.118.236-.238.353-.358l.135-.137.084-.085.145-.145.004-.005.004-.004.018-.018.03-.03.017-.018.029-.03c.643-.676 1.04-1.423 1.191-2.186l.011-.058.008-.045v-.005l.007-.037a3.7 3.7 0 00.04-.735l-.001-.01v-.001l-.002-.034a3.67 3.67 0 00-.109-.684c-.18-.703-.57-1.387-1.171-2.011a6.208 6.208 0 00-.072-.073l-.004-.004-2.333-2.333-.025-.025-.005-.005a35.436 35.436 0 01-.791-.808l-.014-.014a41.793 41.793 0 00-1.572-1.56l-.027-.024-.027-.025-.004-.004c-.834-.824-1.83-1.264-2.878-1.268h-.017c-1.041 0-2.049.429-2.906 1.237l-.036.035-.018.017-.051.052-.005.004-.578.584-.15.15-.071.073-.043.044-1.393 1.404-.144.146-.49.494-.013.013-.004.004-.026.026A6.305 6.305 0 00.111 10.26a7.076 7.076 0 00-.045.384v.008c-.101 1.226.022 2.41.24 3.48l.01.044v.004a15.987 15.987 0 00.139.61 18.93 18.93 0 00.458 1.551l.008.025.001.003c.085.25.17.486.251.705l.002.006a33.185 33.185 0 00.277.719l.002.006a32.41 32.41 0 001.047 2.352l.06.12.037.074a33.278 33.278 0 00.35.677l.002.006a33.628 33.628 0 00.383.702c.517.92 1.087 1.837 1.715 2.76.61.894 1.275 1.793 2.001 2.705l.01.012.07.09.019.022c.162.203.327.406.496.61l.008.01.14.17.011.013.007.008a41.344 41.344 0 008.546 7.725c.108.073.217.146.327.218l.006.005h.002l.088.059a40.375 40.375 0 001.631 1.015l.01.006.116.068.065.038a46.305 46.305 0 00.494.282zm.371-2.48l.365.215.07.04c.132.076.264.152.397.226l.105.06a38.005 38.005 0 001.11.595l.024.012.002.001c.269.138.54.273.811.405l.016.008.008.004c.464.222.968.454 1.505.678 1.412.59 3.05 1.13 4.785 1.308h.004l.06.007.04.004c.103.01.206.018.31.025l.038.002h.007c.11.008.226.01.338.01h.059c1.11 0 2.004-.3 2.773-.925l.045-.038a4.775 4.775 0 00.406-.381l.03-.033.017-.02.057-.067a23.343 23.343 0 011.588-1.635l.008-.008.005-.005.192-.187c.296-.288.577-.561.852-.857l.005-.005.002-.002.03-.032.023-.025.01-.01.004-.004c.063-.07.122-.14.175-.21.282-.367.422-.732.419-1.095-.004-.442-.22-.88-.649-1.311l-.01-.012H35.5l-.009-.01-4.57-4.57-.18-.179-.018-.018-.012-.012-.005-.006a2.046 2.046 0 00-.803-.555l-.005-.002a1.403 1.403 0 00-.378-.073h-.008l-.035-.001h-.017c-.51 0-.95.31-1.246.59l-.057.054-.002.003-.002.002-.004.004-.06.06-.143.143-.007.007-.026.026-.1.099-.31.311-.085.085-.204.204-.006.006-.064.064-.024.024-1.158 1.158-.028.027-.055.056-.115.115-.34.339-.23.231c-.028.027-.066.065-.114.109a2.22 2.22 0 01-.243.19 1.857 1.857 0 01-.522.24h-.002a1.66 1.66 0 01-.435.058c-.285 0-.562-.07-.856-.216-.018-.009-.035-.02-.052-.03-.018-.011-.035-.022-.052-.03a5.536 5.536 0 00-.242-.142 16.814 16.814 0 00-.604-.312l-.01-.005-.024-.012a11.897 11.897 0 01-1.01-.548l-.02-.013-.011-.007a27.741 27.741 0 01-2.786-2.013l-.003-.003-.04-.032a30.039 30.039 0 01-.957-.821 34.074 34.074 0 01-3.272-3.37l-.017-.02-.017-.02a40.734 40.734 0 01-.58-.699l-.012-.014-.009-.009-.001-.001c-.18-.229-.352-.452-.515-.672-.93-1.245-1.603-2.358-2.115-3.505a14.69 14.69 0 01-.164-.382l-.026-.078c-.156-.493-.294-1.22.45-1.964a.086.086 0 01.025-.027l.005-.004a.127.127 0 00.013-.012l.024-.022.165-.15.056-.05a48.534 48.534 0 001.925-1.887l.002-.003.009-.008c.164-.159.324-.321.486-.485l.068-.069.066-.066.111-.112.004-.004.005-.004.02-.02.027-.029.017-.017.022-.023a2.79 2.79 0 00.37-.485l.007-.01v-.001l.02-.036a1.781 1.781 0 00.135-.307l.001-.005c.183-.578-.025-1.147-.624-1.746l-.004-.004-.125-.125-2.233-2.233-.004-.004-.407-.415c-.138-.141-.276-.28-.411-.42l-.014-.015-.026-.026a43.179 43.179 0 00-1.503-1.495L9.15 5.34l-.026-.026-.017-.018c-.278-.273-.712-.588-1.246-.588h-.017c-.43.006-.867.215-1.28.598l-.01.01-.008.006-.017.017-.035.035-.004.005-.61.61-.122.12-.06.062-.035.035-1.492 1.491-.161.161-.402.402-.01.01-.003.003-.004.004-.026.027a3.968 3.968 0 00-1.164 2.54l-.001.015a8.819 8.819 0 00-.016 1.195l.002.033.001.016a9.822 9.822 0 00.047.542 12.202 12.202 0 00.367 1.868l.007.025v.003a18.795 18.795 0 00.46 1.44l.002.007c.032.09.065.18.1.27v.002a29.93 29.93 0 001.315 3.029l.003.006.075.147.044.086.038.074a31.196 31.196 0 00.486.908c.335.6.693 1.199 1.078 1.8a39.492 39.492 0 001.668 2.397c.26.347.53.696.808 1.047l.007.009.052.066.016.02.344.426.007.01c.09.11.18.22.272.33l.005.006.012.015a39.223 39.223 0 006.563 6.227c.578.432 1.167.847 1.768 1.245l.007.005h.001l.07.047a38.127 38.127 0 001.345.846l.101.06.01.007zm2.691-25.32a10.973 10.973 0 015.971 3.098 11.03 11.03 0 013.098 5.97 1.16 1.16 0 001.329.955l.021-.003a1.17 1.17 0 00.96-1.35 13.347 13.347 0 00-3.746-7.225 13.346 13.346 0 00-7.226-3.747 1.174 1.174 0 00-1.35.952 1.156 1.156 0 00.943 1.35z" fill="#675A54"/></g><defs><clipPath id="clip0"><path fill="#fff" d="M0 0h41v41H0z"/></clipPath></defs></svg>