<svg width="49" height="33" fill="none" xmlns="http://www.w3.org/2000/svg"><path fill-rule="evenodd" clip-rule="evenodd" d="M43.896.25H5.104C2.291.25 0 2.487 0 5.234v21.93c0 2.747 2.29 4.983 5.104 4.983h38.792c2.813 0 5.104-2.236 5.104-4.983V5.234C49 2.487 46.71.25 43.896.25zm3.062 26.913c0 1.65-1.374 2.99-3.062 2.99H5.104c-1.688 0-3.062-1.34-3.062-2.99V9.5h44.916v17.663zm0-19.576H2.042V5.234c0-1.648 1.374-2.99 3.062-2.99h38.792c1.688 0 3.062 1.342 3.062 2.99v2.353zm-9.187 10.606h2.041c1.689 0 3.063 1.341 3.063 2.99v1.993c0 1.65-1.374 2.99-3.063 2.99h-2.041c-1.689 0-3.063-1.34-3.063-2.99v-1.993c0-1.649 1.374-2.99 3.063-2.99zm2.041 5.98a1.01 1.01 0 001.021-.996v-1.994c0-.55-.457-.997-1.02-.997H37.77a1.01 1.01 0 00-1.021.997v1.994c0 .55.457.996 1.02.996h2.042zm-32.666 0h12.25c.563 0 1.02.447 1.02.997s-.457.997-1.02.997H7.146a1.01 1.01 0 01-1.021-.997c0-.55.457-.997 1.02-.997z" fill="#675A54"/></svg>