<svg width="49" height="49" fill="none" xmlns="http://www.w3.org/2000/svg"><path d="M47.044 14.963C44.461 8.94 40.071 4.559 33.998 1.969A24.082 24.082 0 0024.46.013c-3.322 0-6.479.655-9.51 1.956C8.925 4.553 4.516 8.93 1.928 14.963.632 17.985 0 21.15 0 24.473c0 3.323.632 6.515 1.929 9.538 2.588 6.033 6.998 10.436 13.02 13.02a23.835 23.835 0 009.51 1.956c3.323 0 6.503-.662 9.538-1.956 6.073-2.59 10.463-6.998 13.047-13.02A23.964 23.964 0 0049 24.473a23.81 23.81 0 00-1.956-9.51zm-3.91 20.334c-1.924 3.298-4.559 5.915-7.877 7.85-3.299 1.923-6.912 2.893-10.797 2.893-2.92 0-5.706-.563-8.358-1.715-2.653-1.152-4.943-2.666-6.859-4.58-1.916-1.917-3.44-4.23-4.58-6.886-1.138-2.648-1.689-5.465-1.689-8.386 0-3.885.955-7.48 2.867-10.77 1.92-3.3 4.555-5.92 7.85-7.849C16.985 3.925 20.576 2.96 24.46 2.96c3.884 0 7.498.97 10.796 2.894 3.319 1.935 5.948 4.554 7.877 7.85 1.928 3.294 2.893 6.884 2.893 10.77 0 3.884-.958 7.504-2.893 10.823z" fill="#675A54"/><path d="M26.014 24.259V10.381c0-.83-.724-1.5-1.555-1.5-.776 0-1.473.67-1.473 1.5v14.092c0 .027.054.135.054.215-.054.482.08.884.402 1.206l8.01 8.01c.536.536 1.527.536 2.063 0 .616-.616.576-1.51 0-2.09l-7.501-7.555z" fill="#675A54"/></svg>