<svg width="64" height="46" fill="none" xmlns="http://www.w3.org/2000/svg"><path d="M51.25 35.138a1.01 1.01 0 01-.698-.277L38.807 23.843a1.02 1.02 0 01-.045-1.441 1.016 1.016 0 011.444-.045L51.95 33.375a1.02 1.02 0 01-.7 1.763zm-39.203-.001a1.021 1.021 0 01-.7-1.764l11.748-11.017a1.02 1.02 0 111.398 1.486L12.745 34.858a1.01 1.01 0 01-.698.278z" fill="#fff"/><path d="M58.196 45.382H5.103A5.108 5.108 0 010 40.28V5.485A5.109 5.109 0 015.103.382h53.093a5.109 5.109 0 015.102 5.103V40.28a5.108 5.108 0 01-5.102 5.102zM5.103 2.423A3.065 3.065 0 002.04 5.485V40.28a3.065 3.065 0 003.062 3.061h53.093a3.065 3.065 0 003.061-3.061V5.485a3.065 3.065 0 00-3.061-3.062H5.103z" fill="#fff"/><path d="M31.65 28.01c-1.358 0-2.715-.45-3.748-1.35L1.694 3.797a1.023 1.023 0 01-.1-1.44 1.027 1.027 0 011.441-.099l26.208 22.86c1.304 1.137 3.508 1.137 4.81 0L60.23 2.296a1.022 1.022 0 011.343 1.539L35.397 26.657c-1.035.903-2.39 1.354-3.748 1.354z" fill="#fff"/></svg>