<svg width="62" height="49" fill="none" xmlns="http://www.w3.org/2000/svg"><path d="M10.473 15.827h-7.12v3.628h7.12v-3.628zm0 14.51h-7.12v3.628h7.12v-3.628zm0-7.255H0v3.627h10.473v-3.627zM38.053.984c-13.204 0-23.947 10.727-23.947 23.912 0 13.185 10.743 23.911 23.947 23.911C51.257 48.807 62 38.081 62 24.896S51.257.984 38.053.984zm0 44.196c-11.201 0-20.314-9.1-20.314-20.284 0-11.185 9.113-20.284 20.314-20.284s20.314 9.1 20.314 20.284S49.254 45.18 38.053 45.18z" fill="#675A54"/><path d="M39.226 25.797V14.081h-3.633v13.634l9.362 6.37L47 31.087l-7.775-5.29z" fill="#675A54"/></svg>