<svg width="50" height="37" fill="none" xmlns="http://www.w3.org/2000/svg"><path fill-rule="evenodd" clip-rule="evenodd" d="M42.385 22.835l7.302 7.303a1.068 1.068 0 010 1.51l-3.223 3.224c-.412.412-1.1.412-1.51 0l-7.304-7.303-4.08 4.08c-.57.57-1.574.302-1.785-.475L30.08 24.93H1.068A1.07 1.07 0 010 23.86V1.068C0 .478.478 0 1.068 0h36.468c.59 0 1.068.478 1.068 1.068v13.887l7.386 2.014c.776.212 1.044 1.216.474 1.787l-4.08 4.08zM2.137 2.136v20.656h27.361l-2.548-9.346c-.214-.783.529-1.525 1.312-1.312l8.205 2.238V2.136H2.137zm36.269 23.167l7.303 7.303 1.712-1.713-7.303-7.302a1.068 1.068 0 010-1.511l3.533-3.533-14.148-3.859 3.859 14.148 3.533-3.533a1.079 1.079 0 011.51 0zM15.883 27.35h6.838a4.492 4.492 0 014.487 4.488 4.492 4.492 0 01-4.487 4.487h-6.838a4.492 4.492 0 01-4.487-4.487 4.492 4.492 0 014.487-4.488zm0 6.838h6.838a2.353 2.353 0 002.35-2.35 2.353 2.353 0 00-2.35-2.35h-6.838a2.353 2.353 0 00-2.35 2.35 2.353 2.353 0 002.35 2.35z" fill="#675A54"/></svg>