<svg width="59" height="51" fill="none" xmlns="http://www.w3.org/2000/svg"><path fill-rule="evenodd" clip-rule="evenodd" d="M56.05 33.346H39.175c-.39-1.161-1.468-1.961-2.792-1.961h-2.851v-4.528c5.62-1.73 9.735-6.972 9.735-13.126C43.267 6.179 37.072 0 29.5 0c-7.572 0-13.767 6.179-13.767 13.73 0 6.19 4.163 11.457 9.834 13.156v4.499h-2.95c-1.324 0-2.401.8-2.792 1.961H2.95C1.278 33.346 0 34.621 0 36.29v9.807c0 1.668 1.278 2.942 2.95 2.942h16.875C20.215 50.2 21.293 51 22.617 51h13.766c1.324 0 2.401-.8 2.792-1.962H56.05c1.672 0 2.95-1.274 2.95-2.942V36.29c0-1.668-1.278-2.943-2.95-2.943zM17.7 13.731c0-6.473 5.31-11.77 11.8-11.77 6.49 0 11.8 5.297 11.8 11.77 0 5.399-3.694 9.978-8.685 11.35a.758.758 0 00-.362.027c-1.77.392-3.54.392-5.408 0a.888.888 0 00-.433-.02C21.407 23.725 17.7 19.139 17.7 13.73zm9.833 13.589a13.755 13.755 0 003.934 0v4.065h-3.934V27.32zM1.967 46.096V36.29c0-.589.393-.981.983-.981h16.717v11.77H2.95c-.59-.001-.983-.393-.983-.982zm20.65 2.943c-.59 0-.984-.393-.984-.981V34.327c0-.588.394-.98.984-.98h13.766c.59 0 .984.392.984.98v13.73c0 .59-.394.982-.984.982H22.617zm33.433-1.962H39.333v-11.77H56.05c.59 0 .983.393.983.981v9.808c0 .589-.393.981-.983.981zM29.457 14.143c.31 0 .517-.103.723-.309l3.101-3.085a.991.991 0 000-1.44 1.003 1.003 0 00-1.447 0l-3.1 3.085a.991.991 0 000 1.44c.206.206.413.309.723.309zm7.149.074c0 1.23-.138 1.922-.313 2.32-.135.308-.3.47-.623.61-.414.18-1.079.31-2.199.373-.96.053-2.105.052-3.527.051h-1.36c-1.503.001-2.691.002-3.67-.052-1.146-.063-1.782-.194-2.154-.362-.264-.119-.398-.248-.519-.557-.162-.414-.277-1.124-.277-2.383 0-4.39 3.364-7.788 7.32-7.788 3.957 0 7.322 3.398 7.322 7.788zm1.722 0c0 5.076-2.095 5.074-8.388 5.068h-.002a690.52 690.52 0 00-1.35 0c-6.655.006-8.347.007-8.347-5.068 0-5.248 4.049-9.503 9.044-9.503 4.994 0 9.043 4.255 9.043 9.503z" fill="#675A54"/></svg>