<svg width="50" height="50" fill="none" xmlns="http://www.w3.org/2000/svg"><g clip-path="url(#clip0)"><path fill-rule="evenodd" clip-rule="evenodd" d="M26.638 7.288a1.637 1.637 0 01-3.275 0v-5.65a1.638 1.638 0 013.275 0v5.65zM12.066 24.232c0-7.132 5.803-12.935 12.935-12.935 7.132 0 12.934 5.803 12.934 12.935 0 2.922-.958 5.681-2.77 7.98-.305.388-.64.781-.994 1.198l-.01.011-.053.063c-1.24 1.458-2.633 3.097-3.105 4.803-.08.288-.119.842-.113 1.601v1c0 .904-.733 1.637-1.638 1.637h-8.574a1.637 1.637 0 01-1.637-1.637V39.9c.006-.582-.01-1.336-.115-1.73-.47-1.718-1.726-3.177-2.942-4.587l-.022-.025c-.397-.461-.773-.897-1.13-1.351a12.773 12.773 0 01-2.766-7.975zm19.602 7.066c.336-.395.654-.769.924-1.112a9.53 9.53 0 002.068-5.954c0-5.327-4.333-9.66-9.66-9.66-5.326 0-9.66 4.333-9.66 9.66a9.53 9.53 0 002.066 5.95c.313.398.664.805 1.037 1.237l.021.026c1.318 1.529 2.957 3.43 3.623 5.867.097.36.203.896.226 1.939h5.308c.026-.983.13-1.493.225-1.835.665-2.405 2.307-4.336 3.756-6.04l.066-.078zM20.678 42.99h8.574a1.638 1.638 0 010 3.275h-8.574a1.637 1.637 0 010-3.275zm6.43 3.735h-4.286a1.638 1.638 0 000 3.275h4.287a1.638 1.638 0 000-3.275zm14.838-24.13h5.649a1.637 1.637 0 010 3.274h-5.649a1.637 1.637 0 010-3.274zM9.693 24.232c0-.904-.734-1.637-1.638-1.637h-5.65a1.637 1.637 0 000 3.274h5.65c.904 0 1.638-.733 1.638-1.637zM38.14 35.056a1.637 1.637 0 10-2.316 2.316l3.994 3.995c.32.32.74.48 1.158.48a1.638 1.638 0 001.158-2.795l-3.994-3.996zm-25.123-21.17c-.42 0-.838-.16-1.158-.48L7.866 9.413a1.637 1.637 0 112.316-2.315l3.993 3.995a1.637 1.637 0 01-1.158 2.795zm-1.156 21.17l-3.995 3.996a1.637 1.637 0 102.316 2.315l3.995-3.996a1.637 1.637 0 10-2.316-2.315zm26.28-21.65c-.32.32-.74.48-1.158.48a1.637 1.637 0 01-1.158-2.795l3.993-3.994a1.637 1.637 0 112.316 2.316l-3.993 3.994z" fill="#675A54"/></g><defs><clipPath id="clip0"><path fill="#fff" d="M0 0h50v50H0z"/></clipPath></defs></svg>