<svg width="34" height="50" fill="none" xmlns="http://www.w3.org/2000/svg"><path d="M31.34 15.81c-1.318-3.012-3.151-5.879-5.45-8.52C21.984 2.802 18.1.522 17.938.427L17.202 0l-.735.427c-.164.095-4.046 2.375-7.952 6.863-2.3 2.641-4.133 5.508-5.45 8.52A29.593 29.593 0 00.572 27.741c0 8.627 6.698 15.718 15.166 16.35V50h2.93v-5.91c8.467-.63 15.164-7.722 15.164-16.349 0-4.136-.838-8.15-2.492-11.931zM10.66 9.288a35.082 35.082 0 015.077-4.794v12.81l-7.806-4.377a32.13 32.13 0 012.728-3.639zM5.723 17.04c.23-.53.48-1.055.745-1.575l9.268 5.197v9.347L3.86 23.349a26.68 26.68 0 011.863-6.31zm10.014 24.11c-6.85-.623-12.235-6.398-12.235-13.41 0-.407.01-.814.029-1.219l12.207 6.845v7.783zm12.918-24.166a26.69 26.69 0 011.887 6.365l-11.876 6.66v-9.347l9.269-5.197c.256.502.496 1.008.72 1.519zm-9.99.32V4.49a35.03 35.03 0 015.014 4.722 32.18 32.18 0 012.794 3.713l-7.807 4.378zm.001 23.846v-7.783l12.207-6.845c.018.405.029.812.029 1.22 0 7.01-5.385 12.785-12.236 13.408z" fill="#675A54"/></svg>