<svg width="43" height="39" fill="none" xmlns="http://www.w3.org/2000/svg"><path d="M43 23.109c0-1.186-.55-2.245-1.407-2.939a3.783 3.783 0 001.356-3.569c-.292-1.796-1.963-3.15-3.885-3.15h-8l.248-.748c1.424-4.269.102-8.83-3.031-11.5-1.75-1.509-4.735-1.005-5.652 1.492a.84.84 0 00-.013.541c.698 2.22.708 3.712.034 5.15-.698 1.493-2.2 3.06-5.023 5.24-.677.523-1.27.843-1.842 1.152-.902.487-1.759.95-2.645 2.032h-3.062v-.84a.84.84 0 00-.84-.84H.84a.84.84 0 00-.84.84v21.836c0 .464.376.84.84.84h8.398a.84.84 0 00.84-.84v-2.52h4.71a13.3 13.3 0 008.864 3.36h10.53a3.777 3.777 0 003.14-5.879h.219a3.777 3.777 0 002.975-6.106A3.779 3.779 0 0043 23.109zM8.398 36.966H1.68V16.81h6.718v20.156zm30.823-11.758h-8.063a.84.84 0 000 1.68h6.383a2.1 2.1 0 110 4.2h-6.383a.84.84 0 000 1.68h3.024a2.1 2.1 0 110 4.199h-10.53a11.627 11.627 0 01-7.965-3.134.84.84 0 00-.573-.226h-5.036V18.49h3.474a.84.84 0 00.676-.342c.758-1.03 1.428-1.391 2.355-1.892.603-.325 1.285-.694 2.071-1.3 5.75-4.442 7.066-7.163 5.657-11.92.557-1.07 1.946-1.36 2.933-.507 2.676 2.34 3.648 6.125 2.475 9.643l-.426 1.279H28.22a.84.84 0 100 1.68h10.845c1.108 0 2.065.748 2.227 1.74a2.1 2.1 0 01-2.07 2.459h-8.063a.84.84 0 100 1.68h8.063a2.099 2.099 0 110 4.199z" fill="#675A54"/></svg>