<svg width="14" height="16" fill="none" xmlns="http://www.w3.org/2000/svg"><path fill-rule="evenodd" clip-rule="evenodd" d="M0 6.75C0 2.99 2.99 0 6.75 0s6.75 2.99 6.654 6.75c0 1.832-.675 3.568-2.025 4.821 0 .072-2.211 2.032-3.367 3.056-.39.345-.66.584-.683.609-.29.289-.868.289-1.254 0-.048-.049-1.037-.94-2.025-1.833-.989-.892-1.977-1.783-2.025-1.832C.675 10.318 0 8.582 0 6.75zm4.821 0c0 1.06.868 1.928 1.929 1.928 1.06 0 1.929-.867 1.929-1.928 0-1.06-.868-1.929-1.929-1.929-1.06 0-1.929.868-1.929 1.929z" fill="#fff"/></svg>