<svg width="55" height="55" fill="none" xmlns="http://www.w3.org/2000/svg"><g clip-path="url(#clip0)"><path d="M54.336 16.295a5.551 5.551 0 00-3.309-2.71 5.551 5.551 0 00-4.256.421 5.553 5.553 0 00-2.711 3.31 5.55 5.55 0 00-.092 2.881l-6.034 3.232a11.587 11.587 0 00-7.984-4.786v-5.15a5.598 5.598 0 004.135-5.396 5.595 5.595 0 00-5.589-5.588 5.595 5.595 0 00-5.589 5.589 5.598 5.598 0 004.135 5.395v5.15c-4.198.528-7.704 3.31-9.261 7.095l-6.605-1.78a5.548 5.548 0 00-.741-2.786 5.553 5.553 0 00-3.39-2.609 5.595 5.595 0 00-6.85 3.942 5.552 5.552 0 00.552 4.242 5.553 5.553 0 003.39 2.609 5.558 5.558 0 004.242-.552 5.55 5.55 0 002.04-2.038l6.606 1.78a11.522 11.522 0 002.324 8.678l-4.843 4.842c-2.136-1.227-4.913-.935-6.736.887a5.595 5.595 0 000 7.904 5.571 5.571 0 003.952 1.635 5.572 5.572 0 003.952-1.635c1.823-1.823 2.115-4.6.888-6.735l4.842-4.842a11.521 11.521 0 007.092 2.435c2.671 0 5.131-.911 7.093-2.435l4.842 4.842c-1.227 2.136-.935 4.913.888 6.735a5.571 5.571 0 003.951 1.635 5.572 5.572 0 003.952-1.635 5.595 5.595 0 000-7.904c-1.822-1.822-4.6-2.114-6.735-.887l-4.842-4.842a11.521 11.521 0 002.435-7.093c0-1.459-.274-2.854-.769-4.141l6.03-3.23a5.552 5.552 0 002.45 1.523 5.561 5.561 0 004.257-.423 5.55 5.55 0 002.71-3.308 5.553 5.553 0 00-.422-4.257zm-3.662 5.002a2.66 2.66 0 01-2.042.202 2.662 2.662 0 01-1.587-1.3 2.663 2.663 0 01-.202-2.042 2.662 2.662 0 011.3-1.587 2.667 2.667 0 012.042-.203c.686.207 1.25.669 1.587 1.3.339.632.41 1.357.203 2.042a2.662 2.662 0 01-1.3 1.588zM37.172 30.13c0 4.784-3.892 8.675-8.676 8.675-4.783 0-8.675-3.891-8.675-8.675 0-4.783 3.892-8.675 8.675-8.675 4.784 0 8.676 3.892 8.676 8.675zM25.815 8.098a2.684 2.684 0 012.681-2.681 2.684 2.684 0 012.681 2.68 2.684 2.684 0 01-2.68 2.682 2.684 2.684 0 01-2.682-2.681zM4.894 26.548a2.664 2.664 0 01-1.627-1.251 2.663 2.663 0 01-.265-2.035A2.684 2.684 0 016.29 21.37a2.666 2.666 0 011.626 1.252c.357.62.451 1.343.265 2.035a2.684 2.684 0 01-3.286 1.891zm8.724 22.253a2.685 2.685 0 01-3.792 0 2.684 2.684 0 010-3.792 2.673 2.673 0 011.896-.784c.687 0 1.373.262 1.896.784a2.684 2.684 0 010 3.792zm33.548-3.792a2.684 2.684 0 010 3.792 2.685 2.685 0 01-3.792 0 2.684 2.684 0 010-3.792 2.673 2.673 0 011.896-.784c.687 0 1.373.261 1.896.784z" fill="#675A54"/></g><defs><clipPath id="clip0"><path fill="#fff" d="M0 0h55v55H0z"/></clipPath></defs></svg>