<svg width="37" height="41" fill="none" xmlns="http://www.w3.org/2000/svg"><path d="M34.126.366a1.578 1.578 0 00-2.222.202L.365 38.413A1.58 1.58 0 001.575 41c.454 0 .902-.192 1.214-.567L34.328 2.587a1.577 1.577 0 00-.202-2.221zM7.885 15.77c4.347 0 7.884-3.538 7.884-7.885C15.77 3.537 12.232 0 7.885 0 3.537 0 0 3.537 0 7.885c0 4.347 3.537 7.884 7.885 7.884zm0-12.616a4.736 4.736 0 014.73 4.73 4.736 4.736 0 01-4.73 4.731 4.736 4.736 0 01-4.731-4.73 4.736 4.736 0 014.73-4.731zm20.5 22.076c-4.347 0-7.885 3.538-7.885 7.885 0 4.348 3.538 7.885 7.885 7.885 4.347 0 7.884-3.537 7.884-7.885 0-4.347-3.537-7.884-7.884-7.884zm0 12.616a4.736 4.736 0 01-4.73-4.73 4.736 4.736 0 014.73-4.732 4.736 4.736 0 014.73 4.731 4.736 4.736 0 01-4.73 4.731z" fill="#675A54"/></svg>