<svg width="54" height="41" fill="none" xmlns="http://www.w3.org/2000/svg"><path d="M3.027 27.781h2.168c1.108 2.144 2.825 4.104 5.004 5.71v5.356a2.128 2.128 0 002.125 2.125h5.313a2.128 2.128 0 002.125-2.125v-1.26a1.861 1.861 0 011.859-1.86h7.673a1.862 1.862 0 011.859 1.86v1.26a2.128 2.128 0 002.125 2.125h5.312a2.127 2.127 0 002.125-2.125v-6.282c3.14-2.708 4.983-6.12 5.273-9.73h.571a.861.861 0 01.86.862v.818a2.457 2.457 0 002.455 2.455h2.427a.797.797 0 100-1.594h-2.427a.862.862 0 01-.86-.86v-.82a2.457 2.457 0 00-2.455-2.454h-.55c-.417-8.668-7.6-15.59-16.364-15.59a638.03 638.03 0 00-5.854-.01A10.251 10.251 0 0015.034.614a.797.797 0 00-.752 1.062l.182.518a8.157 8.157 0 01-.05 5.567c-3.293 1.433-6.008 3.502-7.89 6.01H3.026a2.128 2.128 0 00-2.125 2.126v9.76a2.128 2.128 0 002.125 2.125zm-.53-11.885a.531.531 0 01.53-.532h3.901a.797.797 0 00.65-.335c1.773-2.497 4.457-4.548 7.763-5.931a.797.797 0 00.428-.428 9.747 9.747 0 00.394-6.39 8.441 8.441 0 014.881 2.416 8.264 8.264 0 011.567 2.113.796.796 0 00.759.435c.357-.021 3.943-.01 6.27.002a14.81 14.81 0 0114.794 14.68c-.031 3.57-1.813 6.996-5.024 9.656a.796.796 0 00-.288.614v6.651a.531.531 0 01-.532.532h-5.312a.531.531 0 01-.531-.532v-1.26a3.457 3.457 0 00-3.453-3.453H21.62a3.457 3.457 0 00-3.453 3.453v1.26a.531.531 0 01-.531.532h-5.313a.531.531 0 01-.531-.532v-5.764a.797.797 0 00-.338-.65C9.183 30.83 7.44 28.83 6.411 26.645a.797.797 0 00-.72-.458H3.026a.531.531 0 01-.53-.531v-9.761z" fill="#675A54"/><path d="M12.775 20.743a3.058 3.058 0 003.054-3.055.797.797 0 00-1.593 0 1.461 1.461 0 11-2.922 0 .796.796 0 10-1.594 0 3.058 3.058 0 003.055 3.055zm12.897-8.35h7.085a.797.797 0 100-1.594h-7.085a.797.797 0 100 1.594z" fill="#675A54"/></svg>