<svg width="46" height="46" fill="none" xmlns="http://www.w3.org/2000/svg"><path fill-rule="evenodd" clip-rule="evenodd" d="M18.494 6.595C14.474 2.578 6.61 2.113 1.044 2.113.468 2.113 0 2.58 0 3.157c0 5.566.464 13.43 4.482 17.45 1.696 1.695 4.297 2.454 6.874 2.454 2.086 0 4.157-.497 5.724-1.395 2.123 4.445 3.807 11.09 3.807 21.177a1.045 1.045 0 002.089.002c0-5.664.963-12.47 4.573-18.067 1.567 1.532 4.317 2.412 7.093 2.412 2.577 0 5.175-.756 6.875-2.452C45.535 20.719 46 12.855 46 7.288c0-.576-.468-1.044-1.044-1.044-5.567 0-13.43.464-17.45 4.483-2.962 2.96-3.063 8.672-1.267 12.214-1.926 2.779-3.207 5.852-4.032 8.965-.761-4.942-2.02-8.701-3.452-11.582 2.76-3.156 3.175-10.294-.261-13.729zm-.845 11.722c1.648-2.666 1.712-7.899-.632-10.243C13.773 4.83 7.183 4.268 2.095 4.208c.06 5.088.622 11.678 3.866 14.921 2.316 2.316 7.448 2.281 10.144.692-2.331-3.996-4.94-5.781-6.399-6.778-.482-.33-.84-.587-1.046-.791a1.045 1.045 0 011.477-1.477c.12.118.32.254.576.428l.171.117.002.001c1.545 1.057 4.283 2.931 6.763 6.996zm11.135 4.73c1.986-2.523 4.609-4.716 8.047-6.332 0-.002.169-.081.169-.081.52-.247.66-.828.413-1.35-.246-.524-.952-.704-1.472-.461-3.453 1.623-6.148 3.766-8.24 6.22-.962-2.814-.701-6.858 1.28-8.84 3.244-3.243 9.834-3.805 14.922-3.866-.06 5.09-.622 11.68-3.866 14.922-2.615 2.615-8.823 2.233-11.056 0a3.8 3.8 0 01-.197-.213z" fill="#675A54"/></svg>