<svg width="168" height="169" fill="none" xmlns="http://www.w3.org/2000/svg"><path fill-rule="evenodd" clip-rule="evenodd" d="M161.613 86.076c.843-42.2-32.107-77.372-74.238-79.209l-.3-.013c-2.022-.088-2.2-.094-2.375-.075l-.025.003-.025.003c-.21.027-.624.079-3.724.082h-.301c-42.129 1.837-75.08 37.01-74.236 79.21l.003.136c.917 42.251 35.378 76.023 77.578 76.04h.06c42.202-.017 76.662-33.789 77.58-76.04l.003-.137zM84 169c45.747-.206 82.988-36.871 83.98-82.648l.003-.149c.914-45.748-34.704-83.891-80.314-86.081a84.95 84.95 0 00-.294-.014c-.565 0-.903-.023-1.264-.048-.803-.056-1.719-.12-5.486.048l-.294.014C34.72 2.312-.897 40.455.017 86.203l.003.149C1.014 132.129 38.254 168.794 84 169zm-17.55-35.147a3.37 3.37 0 01-4.725.675 3.381 3.381 0 01-.68-4.724v-.001l.005-.006 9.756-13.025 20.982-28.013 9.756-13.024.002-.003.005-.007a3.371 3.371 0 014.725-.675 3.383 3.383 0 01.681 4.724l-.001.001-.004.006-9.757 13.026-20.982 28.013-9.757 13.026-.001.001-.005.006zm-4.724.675l2.023-2.698.004.003-2.027 2.695zm2.032-2.702l-.005.006-.003-.002.004-.006v-.001l9.973-13.294.004.004.016.011-9.99 13.282zm16.867-43.934c0 7.465-6.043 13.518-13.5 13.518-7.456 0-13.501-6.053-13.501-13.518 0-7.466 6.045-13.518 13.5-13.518 7.458 0 13.5 6.052 13.5 13.518zm-6.75 0c0-3.733-3.021-6.76-6.75-6.76-3.728 0-6.75 3.027-6.75 6.76 0 3.732 3.022 6.759 6.75 6.759 3.729 0 6.75-3.027 6.75-6.76zm13.5 33.795c0 7.465 6.045 13.518 13.501 13.518 7.457 0 13.5-6.053 13.5-13.518 0-7.465-6.043-13.518-13.5-13.518-7.456 0-13.5 6.053-13.5 13.518zm20.251 0a6.754 6.754 0 01-6.75 6.759 6.755 6.755 0 01-6.75-6.759 6.755 6.755 0 016.75-6.759 6.754 6.754 0 016.75 6.759z" fill="#675A54"/></svg>