<svg width="41" height="41" fill="none" xmlns="http://www.w3.org/2000/svg"><g clip-path="url(#clip0)" fill="#675A54"><path d="M37.348 7.08C31.707 5.534 26.032 3.127 20.938.12a.862.862 0 00-.876 0C14.82 3.214 9.453 5.49 3.652 7.08a.862.862 0 00-.635.832v8.812c0 9.075 4.187 15.081 7.699 18.522C14.496 38.951 18.9 41 20.5 41c1.599 0 6.003-2.049 9.784-5.754 3.512-3.44 7.698-9.447 7.698-18.522V7.912c0-.389-.26-.73-.634-.832zm-1.09 9.644c0 8.476-3.905 14.08-7.181 17.29-3.718 3.643-7.693 5.261-8.577 5.261-.883 0-4.859-1.618-8.577-5.26-3.276-3.21-7.18-8.816-7.18-17.291V8.566A67.924 67.924 0 0020.5 1.862a70.072 70.072 0 0015.758 6.704v8.158z"/><path d="M14.621 18.74a2.786 2.786 0 00-1.983-.821c-.749 0-1.453.291-1.983.82a2.808 2.808 0 000 3.967l5.093 5.093c.53.53 1.234.82 1.983.82.749 0 1.453-.29 1.983-.82l10.631-10.632a2.808 2.808 0 000-3.966 2.786 2.786 0 00-1.983-.821c-.75 0-1.453.292-1.983.821L17.73 21.85l-3.11-3.11zM27.6 14.42c.203-.203.475-.315.763-.315a1.08 1.08 0 01.763 1.843l-10.63 10.63a1.073 1.073 0 01-.764.317c-.289 0-.56-.112-.764-.316l-5.092-5.093a1.08 1.08 0 011.527-1.527l3.719 3.72a.863.863 0 001.22 0l9.258-9.258z"/></g><defs><clipPath id="clip0"><path fill="#fff" d="M0 0h41v41H0z"/></clipPath></defs></svg>