<svg width="42" height="42" fill="none" xmlns="http://www.w3.org/2000/svg"><path d="M41.088 19.117a2.993 2.993 0 00.762-3.087 2.994 2.994 0 00-2.432-2.05l-10.17-1.478a1.329 1.329 0 01-1-.728L23.7 2.56A2.994 2.994 0 0021 .881c-1.155 0-2.19.644-2.701 1.68l-4.548 9.214a1.33 1.33 0 01-1.001.728L2.58 13.98a2.991 2.991 0 00-2.43 2.05 2.993 2.993 0 00.762 3.087l7.358 7.172c.313.306.457.747.383 1.177l-1.736 10.13a2.993 2.993 0 001.197 2.945c.934.68 2.149.769 3.172.23l9.095-4.782c.388-.204.85-.204 1.238 0l9.096 4.782a3.001 3.001 0 003.172-.23 2.993 2.993 0 001.197-2.945l-1.737-10.128a1.33 1.33 0 01.383-1.177l7.358-7.173zm-9.398 8.635l1.737 10.127c.087.51-.11.997-.53 1.301a1.31 1.31 0 01-1.4.102l-9.095-4.783a3.018 3.018 0 00-2.804 0l-9.094 4.783c-.46.239-.982.202-1.4-.102a1.307 1.307 0 01-.53-1.301l1.737-10.127a3.012 3.012 0 00-.866-2.666l-7.36-7.173a1.304 1.304 0 01-.336-1.364c.16-.492.561-.83 1.073-.905l10.17-1.478a3.008 3.008 0 002.267-1.648l4.548-9.215c.228-.464.675-.74 1.192-.74.518 0 .964.276 1.194.74l4.547 9.215a3.006 3.006 0 002.267 1.648l10.17 1.478c.512.074.913.412 1.073.905.16.492.034 1.002-.337 1.364l-7.357 7.172a3.011 3.011 0 00-.866 2.667z" fill="#675A54"/></svg>