<svg width="57" height="57" fill="none" xmlns="http://www.w3.org/2000/svg"><path d="M53.809 25.314h-1.356v-8.147a6.04 6.04 0 00-6.032-6.032H45.17l.011-3.028a4.071 4.071 0 00-4.068-4.068H4.945c-2.7 0-4.91 2.174-4.945 4.875v39.979a4.071 4.071 0 004.068 4.068h42.364a6.04 6.04 0 006.032-6.032v-8.16h1.356A3.183 3.183 0 0057 35.59v-7.095a3.2 3.2 0 00-3.191-3.18zM4.945 6.845h36.168c.69 0 1.263.562 1.263 1.251l-.012 3.04H4.944a2.14 2.14 0 01-2.138-2.14c0-1.18.958-2.15 2.139-2.15zm44.702 40.073a3.233 3.233 0 01-3.226 3.227H4.056c-.69 0-1.262-.561-1.262-1.263V13.45a4.92 4.92 0 002.15.491h41.477a3.233 3.233 0 013.226 3.227v8.147h-9.574a3.183 3.183 0 00-3.18 3.18v7.096a3.183 3.183 0 003.18 3.18h9.574v8.147zm4.536-11.327a.37.37 0 01-.374.374H40.085a.37.37 0 01-.374-.374v-7.096c0-.199.163-.374.374-.374h13.724c.198 0 .374.164.374.374v7.096z" fill="#675A54"/></svg>